REM MD5 a5263f5c4255d9775687b827f57d9c7a
FILE "Touki Denshou - Angel Eyes (Japan).bin" BINARY
  TRACK 01 MODE2/2352
    INDEX 01 00:00:00
  TRACK 02 AUDIO
    INDEX 00 36:27:33
    INDEX 01 36:29:33
  TRACK 03 AUDIO
    INDEX 00 37:51:72
    INDEX 01 37:53:72
  TRACK 04 AUDIO
    INDEX 00 38:06:61
    INDEX 01 38:08:61
REM LEADOUT 41:08:62
